<svg xmlns="http://www.w3.org/2000/svg" width="202.981" height="48" viewBox="0 0 202.981 48">
  <g id="Grupo_10" data-name="Grupo 10" transform="translate(-39.019 -48)">
    <path id="Caminho_7" data-name="Caminho 7" d="M.861,0A.808.808,0,0,1,.185-.287a.886.886,0,0,1-.144-.738L.984-5.617a1.173,1.173,0,0,1,.451-.738,1.3,1.3,0,0,1,.82-.287H6.847a.808.808,0,0,1,.676.287.886.886,0,0,1,.143.738L6.683-1.025a1.206,1.206,0,0,1-.431.738,1.222,1.222,0,0,1-.8.287ZM23.78.41a8.353,8.353,0,0,1-3.875-.8,5.251,5.251,0,0,1-2.235-2.03l-.328,1.394a1.206,1.206,0,0,1-.431.738A1.169,1.169,0,0,1,16.154,0H12.218a.762.762,0,0,1-.635-.287.886.886,0,0,1-.143-.738l5.74-27.06a1.206,1.206,0,0,1,.431-.738,1.222,1.222,0,0,1,.8-.287h4.223a.762.762,0,0,1,.636.287.886.886,0,0,1,.143.738l-1.886,8.938a10.994,10.994,0,0,1,2.706-1.866A8.1,8.1,0,0,1,27.8-21.73a8.55,8.55,0,0,1,3.629.7A5.813,5.813,0,0,1,33.8-19.065a7.306,7.306,0,0,1,1.169,3.034,11.509,11.509,0,0,1-.082,3.854q-.123.779-.266,1.5t-.348,1.5a16.554,16.554,0,0,1-2.153,5.063A10.28,10.28,0,0,1,28.639-.779,9.588,9.588,0,0,1,23.78.41ZM22.632-4.51a4.619,4.619,0,0,0,2.563-.677A5.319,5.319,0,0,0,26.9-6.97a11.387,11.387,0,0,0,1.066-2.419,12.387,12.387,0,0,0,.348-1.271,8.639,8.639,0,0,0,.184-1.271,9.151,9.151,0,0,0,.082-2.419,2.831,2.831,0,0,0-.82-1.783,3.224,3.224,0,0,0-2.3-.677,5,5,0,0,0-2.562.656,5.625,5.625,0,0,0-1.824,1.661,7.247,7.247,0,0,0-1.025,2.152q-.205.738-.369,1.517a15.367,15.367,0,0,0-.246,1.558,6.833,6.833,0,0,0-.02,2.3,3.023,3.023,0,0,0,.943,1.763A3.262,3.262,0,0,0,22.632-4.51ZM37.679,0a.821.821,0,0,1-.656-.287.845.845,0,0,1-.164-.738l4.1-19.27a1.242,1.242,0,0,1,.451-.718,1.2,1.2,0,0,1,.779-.307h4.018a.742.742,0,0,1,.635.307.872.872,0,0,1,.144.718l-.328,1.64a7,7,0,0,1,2.48-1.947,8.445,8.445,0,0,1,3.669-.718h2.173a.762.762,0,0,1,.635.287.886.886,0,0,1,.144.738l-.779,3.526a1.206,1.206,0,0,1-.431.738,1.169,1.169,0,0,1-.758.287H50.225a4.62,4.62,0,0,0-3.054,1,4.964,4.964,0,0,0-1.62,2.849L43.214-1.025a1.206,1.206,0,0,1-.431.738,1.222,1.222,0,0,1-.8.287ZM62.73.41A7.633,7.633,0,0,1,58.507-.677a5.466,5.466,0,0,1-2.3-3.157,10.063,10.063,0,0,1,.041-5.022L58.671-20.3a1.206,1.206,0,0,1,.431-.738,1.222,1.222,0,0,1,.8-.287h4.346a.762.762,0,0,1,.635.287.886.886,0,0,1,.144.738L62.648-9.1a7.9,7.9,0,0,0-.2,2.542A2.068,2.068,0,0,0,63.3-5.023a3.808,3.808,0,0,0,2.173.512A5.271,5.271,0,0,0,68.921-5.72,5.7,5.7,0,0,0,70.848-9.1L73.226-20.3a1.173,1.173,0,0,1,.451-.738,1.25,1.25,0,0,1,.779-.287H78.8a.751.751,0,0,1,.656.287.937.937,0,0,1,.123.738l-4.1,19.27a1.246,1.246,0,0,1-.41.738A1.144,1.144,0,0,1,74.292,0H70.274A.808.808,0,0,1,69.6-.287a.886.886,0,0,1-.144-.738l.328-1.6a13.71,13.71,0,0,1-1.865,1.64A6.962,6.962,0,0,1,65.743.062,11.062,11.062,0,0,1,62.73.41ZM88.6.41A7.633,7.633,0,0,1,84.378-.677a5.466,5.466,0,0,1-2.3-3.157,10.063,10.063,0,0,1,.041-5.022L84.542-20.3a1.206,1.206,0,0,1,.431-.738,1.222,1.222,0,0,1,.8-.287h4.346a.762.762,0,0,1,.635.287.886.886,0,0,1,.144.738L88.519-9.1a7.9,7.9,0,0,0-.205,2.542,2.068,2.068,0,0,0,.861,1.538,3.808,3.808,0,0,0,2.173.512A5.271,5.271,0,0,0,94.792-5.72,5.7,5.7,0,0,0,96.719-9.1L99.1-20.3a1.173,1.173,0,0,1,.451-.738,1.25,1.25,0,0,1,.779-.287h4.346a.751.751,0,0,1,.656.287.937.937,0,0,1,.123.738l-4.1,19.27a1.246,1.246,0,0,1-.41.738,1.144,1.144,0,0,1-.779.287H96.145a.808.808,0,0,1-.676-.287.886.886,0,0,1-.144-.738l.328-1.6a13.71,13.71,0,0,1-1.865,1.64A6.962,6.962,0,0,1,91.615.062,11.062,11.062,0,0,1,88.6.41Zm16.318,3.034a.689.689,0,0,1-.656-.39.757.757,0,0,1,.123-.841l21.074-33.5a1.946,1.946,0,0,1,.553-.635,1.572,1.572,0,0,1,1-.308h3.239a.64.64,0,0,1,.676.369.982.982,0,0,1-.143.861L109.634,2.5a2.576,2.576,0,0,1-.533.615,1.489,1.489,0,0,1-1.025.328Z" transform="translate(39 85)" fill="#232323"/>
    <g id="Grupo_2" data-name="Grupo 2" transform="translate(-590.019 -365.069)">
      <text id="box" transform="translate(758.019 451.069)" fill="#356c62" font-size="41" font-family="Rubik-SemiBoldItalic, Rubik" font-weight="600" font-style="italic"><tspan x="0" y="0">box</tspan></text>
      <text id="box-2" data-name="box" transform="translate(758.019 451.069)" fill="#356c62" font-size="41" font-family="Rubik-SemiBoldItalic, Rubik" font-weight="600" font-style="italic"><tspan x="0" y="0">box</tspan></text>
    </g>
  </g>
</svg>
